<svg width="29" height="28" viewBox="0 0 29 28" fill="none" xmlns="http://www.w3.org/2000/svg">
<path d="M14.3939 2.87415C14.4341 2.83155 14.4746 2.82122 14.5 2.82122C14.5254 2.82122 14.5659 2.83155 14.6061 2.87415L24.7614 13.6518C25.1115 14.0234 25.3142 14.5328 25.3142 15.0764V23.451C25.3142 23.9685 24.9276 24.3038 24.5599 24.3038H18.7371C18.38 24.3038 18.004 23.9798 18.004 23.4735V18.4082C18.004 16.4326 16.4815 14.7418 14.5 14.7418C12.5185 14.7418 10.996 16.4326 10.996 18.4082V23.4735C10.996 23.9798 10.62 24.3038 10.2629 24.3038H4.44015C4.07241 24.3038 3.6858 23.9685 3.6858 23.451V15.0764C3.6858 14.5328 3.88848 14.0234 4.23861 13.6518L14.3939 2.87415Z" stroke="#FAFAFA" stroke-width="1.70493"/>
</svg>
