<svg width="149" height="36" viewBox="0 0 149 36" fill="none" xmlns="http://www.w3.org/2000/svg">
<path d="M6.9352 7.31453C6.15346 7.31453 5.49017 7.04211 4.94533 6.49726C4.40049 5.95242 4.12806 5.28913 4.12806 4.5074C4.12806 3.72566 4.40049 3.06238 4.94533 2.51753C5.49017 1.949 6.15346 1.66473 6.9352 1.66473C7.71693 1.66473 8.38022 1.949 8.92506 2.51753C9.4936 3.06238 9.77786 3.72566 9.77786 4.5074C9.77786 5.28913 9.4936 5.95242 8.92506 6.49726C8.38022 7.04211 7.71693 7.31453 6.9352 7.31453ZM4.51893 27.2132C3.38186 27.2132 2.458 26.8579 1.74733 26.1472C1.06035 25.4365 0.716862 24.3705 0.716862 22.9492C0.716862 22.357 0.811618 21.5871 1.00113 20.6395L3.4174 9.23333H8.5342L5.9758 21.3147C5.88104 21.67 5.83366 22.049 5.83366 22.4517C5.83366 22.9255 5.94026 23.269 6.15346 23.4822C6.39035 23.6717 6.76937 23.7665 7.29053 23.7665C7.71693 23.7665 8.09595 23.6954 8.4276 23.5533C8.33284 24.7377 7.90644 25.6497 7.1484 26.2893C6.41404 26.9052 5.53755 27.2132 4.51893 27.2132ZM16.884 27.5685C14.2071 27.5685 12.241 26.8934 10.9854 25.5431C9.72993 24.1929 9.10217 21.9543 9.10217 18.8273C9.10217 16.34 9.51673 13.6632 10.3458 10.7968C11.1986 7.93044 12.5489 5.47864 14.3966 3.4414C16.2681 1.38046 18.637 0.349995 21.5033 0.349995C23.28 0.349995 24.7132 0.740863 25.8028 1.5226C26.8925 2.30433 27.4374 3.50062 27.4374 5.11146C27.4374 6.13009 27.236 6.93551 26.8333 7.52773C26.4306 8.09626 25.8028 8.38053 24.95 8.38053C24.0972 8.38053 23.4221 8.07257 22.9246 7.45666C23.351 7.24346 23.7301 6.81706 24.0617 6.17746C24.3934 5.53786 24.5592 4.87457 24.5592 4.1876C24.5592 3.548 24.3815 3.02684 24.0262 2.62413C23.6945 2.22142 23.1497 2.02006 22.3916 2.02006C21.1361 2.02006 19.9398 2.88471 18.8028 4.614C17.6657 6.3196 16.7418 8.47529 16.0312 11.0811C15.3442 13.6868 15.0007 16.1979 15.0007 18.6141C15.0007 20.4145 15.3087 21.7884 15.9246 22.736C16.5405 23.6836 17.6539 24.1573 19.2647 24.1573C20.6624 24.1573 21.9534 23.8494 23.1378 23.2335C24.3223 22.6176 25.3409 21.7411 26.1937 20.604L27.011 20.9593C26.4188 22.4517 25.5423 23.6954 24.3815 24.6903C23.2208 25.6853 21.9771 26.4196 20.6505 26.8934C19.3239 27.3435 18.0684 27.5685 16.884 27.5685ZM31.2775 27.1421C29.5245 27.1421 28.1387 26.692 27.1201 25.7919C26.1015 24.8917 25.5921 23.4704 25.5921 21.5279C25.5921 19.917 25.9238 18.1285 26.5871 16.1623C27.2504 14.1962 28.3164 12.5024 29.7851 11.0811C31.2538 9.63604 33.1015 8.91353 35.3283 8.91353C38.3605 8.91353 39.8765 10.8086 39.8765 14.5989V14.6344C39.9476 14.6581 40.0779 14.6699 40.2674 14.6699C41.0491 14.6699 41.9493 14.4686 42.9679 14.0659C43.9866 13.6395 44.9104 13.1302 45.7395 12.5379L46.0593 13.4973C45.3724 14.2317 44.4722 14.8594 43.3588 15.3806C42.2691 15.8781 41.0728 16.2334 39.7699 16.4466C39.5804 18.6023 39.0948 20.4856 38.3131 22.0964C37.5313 23.7072 36.5246 24.9509 35.2927 25.8274C34.0609 26.7039 32.7225 27.1421 31.2775 27.1421ZM32.6988 23.9441C33.2673 23.9441 33.8359 23.6243 34.4044 22.9847C34.9729 22.3214 35.4704 21.4331 35.8968 20.3197C36.3232 19.1827 36.6312 17.9272 36.8207 16.5532C36.1811 16.4111 35.8613 15.9136 35.8613 15.0608C35.8613 14.0896 36.2285 13.45 36.9628 13.142C36.9154 12.3603 36.797 11.8273 36.6075 11.543C36.418 11.235 36.0863 11.0811 35.6125 11.0811C34.8308 11.0811 34.0728 11.6496 33.3384 12.7867C32.6041 13.9237 32.0118 15.2858 31.5617 16.873C31.1117 18.4602 30.8866 19.8578 30.8866 21.0659C30.8866 22.203 31.0169 22.9729 31.2775 23.3756C31.5381 23.7546 32.0118 23.9441 32.6988 23.9441ZM45.9688 27.2132C44.6186 27.2132 43.4934 26.7513 42.5932 25.8274C41.693 24.9035 41.2429 23.4585 41.2429 21.4923C41.2429 19.7394 41.5864 17.9035 42.2734 15.9847C42.984 14.0422 44.0264 12.4076 45.4003 11.0811C46.798 9.7308 48.4562 9.05567 50.375 9.05567C51.3462 9.05567 52.0687 9.22149 52.5425 9.55313C53.0163 9.88478 53.2532 10.323 53.2532 10.8679V11.01L54.9943 2.83733L60.2532 2.12666L56.1669 21.3147C56.0722 21.67 56.0248 22.049 56.0248 22.4517C56.0248 22.9255 56.1314 23.269 56.3446 23.4822C56.5815 23.6717 56.9605 23.7665 57.4816 23.7665C58.1449 23.7665 58.7135 23.4822 59.1872 22.9137C59.6847 22.3451 60.0756 21.5871 60.3598 20.6395H61.8522C60.4072 24.8798 58.0265 27 54.71 27C53.7388 27 52.9452 26.7394 52.3293 26.2183C51.7371 25.6971 51.3699 24.9391 51.2278 23.9441C50.6119 24.8917 49.8657 25.6734 48.9892 26.2893C48.1364 26.9052 47.1296 27.2132 45.9688 27.2132ZM48.2785 23.7665C48.847 23.7665 49.4156 23.5059 49.9841 22.9847C50.5763 22.4636 50.979 21.7411 51.1922 20.8172V20.6395L52.9334 12.5024C52.7202 11.6733 52.2346 11.2587 51.4765 11.2587C50.529 11.2587 49.6762 11.8154 48.9181 12.9288C48.1601 14.0185 47.5678 15.3451 47.1414 16.9085C46.715 18.4483 46.5018 19.8104 46.5018 20.9949C46.5018 22.1793 46.6677 22.9374 46.9993 23.269C47.3546 23.6006 47.781 23.7665 48.2785 23.7665ZM65.455 27.2132C63.702 27.2132 62.3399 26.7631 61.3687 25.8629C60.3974 24.9391 59.9118 23.5059 59.9118 21.5634C59.9118 19.9289 60.2316 18.1285 60.8712 16.1623C61.5108 14.1962 62.5531 12.5024 63.9981 11.0811C65.4431 9.63604 67.279 8.91353 69.5058 8.91353C72.1116 8.91353 73.4145 10.0506 73.4145 12.3247C73.4145 13.6513 73.0354 14.8713 72.2774 15.9847C71.5193 17.098 70.5126 17.9982 69.2571 18.6852C68.0015 19.3485 66.6631 19.7275 65.2418 19.8223C65.1944 20.5329 65.1707 21.0067 65.1707 21.2436C65.1707 22.4044 65.3721 23.1979 65.7748 23.6243C66.1775 24.027 66.8289 24.2284 67.7291 24.2284C69.0083 24.2284 70.098 23.9323 70.9982 23.3401C71.9221 22.7478 72.9288 21.8477 74.0185 20.6395H75.2267C72.5972 25.022 69.34 27.2132 65.455 27.2132ZM65.5261 18.1167C66.4025 18.0693 67.2317 17.7613 68.0134 17.1928C68.8188 16.6243 69.4584 15.9018 69.9322 15.0253C70.4297 14.1488 70.6784 13.2249 70.6784 12.2537C70.6784 11.2824 70.3823 10.7968 69.7901 10.7968C68.9373 10.7968 68.0963 11.543 67.2672 13.0354C66.4618 14.5278 65.8814 16.2216 65.5261 18.1167ZM80.3004 35.8833C79.1634 35.8833 78.2158 35.5872 77.4578 34.995C76.6997 34.4028 76.3207 33.55 76.3207 32.4366C76.3207 31.0863 76.8655 29.9966 77.9552 29.1675C79.0449 28.3621 80.4307 27.687 82.1126 27.1421L82.539 25.2589C81.3309 26.5618 79.9096 27.2132 78.275 27.2132C76.9248 27.2132 75.7995 26.7513 74.8994 25.8274C73.9992 24.9035 73.5491 23.4585 73.5491 21.4923C73.5491 19.7394 73.8926 17.9035 74.5796 15.9847C75.2902 14.0422 76.3325 12.4076 77.7065 11.0811C79.1041 9.7308 80.7624 9.05567 82.6812 9.05567C83.6524 9.05567 84.3749 9.22149 84.8487 9.55313C85.3225 9.88478 85.5594 10.323 85.5594 10.8679V11.0811L85.9502 9.23333H91.067L87.5492 25.7208C88.6863 25.3418 89.5983 24.7732 90.2853 24.0152C90.9723 23.2572 91.5527 22.1319 92.0264 20.6395H93.5188C92.8792 22.7478 92.0146 24.2995 90.9249 25.2944C89.8352 26.2656 88.6034 26.9289 87.2294 27.2843L86.6964 29.8427C86.2227 32.1405 85.4054 33.7158 84.2446 34.5686C83.0839 35.4451 81.7691 35.8833 80.3004 35.8833ZM80.5847 23.7665C81.1295 23.7665 81.6862 23.5177 82.2548 23.0203C82.8233 22.5228 83.2142 21.8477 83.4274 20.9949L85.2396 12.5735C85.2396 12.2892 85.1211 12.0049 84.8842 11.7207C84.6473 11.4127 84.2802 11.2587 83.7827 11.2587C82.8351 11.2587 81.9823 11.8154 81.2243 12.9288C80.4663 14.0185 79.874 15.3451 79.4476 16.9085C79.0212 18.4483 78.808 19.8104 78.808 20.9949C78.808 22.1793 78.9739 22.9374 79.3055 23.269C79.6608 23.6006 80.0872 23.7665 80.5847 23.7665ZM79.4832 33.1117C79.8859 33.1117 80.2767 32.8393 80.6558 32.2945C81.0348 31.7496 81.3309 30.9679 81.5441 29.9493L81.7573 28.9188C79.4358 29.7716 78.275 30.7784 78.275 31.9391C78.275 32.2471 78.3816 32.5195 78.5948 32.7564C78.808 32.9933 79.1041 33.1117 79.4832 33.1117ZM94.4369 9.23333H99.5537L99.0917 11.4364C99.8972 10.7257 100.62 10.1809 101.259 9.80186C101.923 9.42284 102.633 9.23333 103.391 9.23333C104.149 9.23333 104.742 9.49391 105.168 10.0151C105.618 10.5362 105.843 11.164 105.843 11.8983C105.843 12.5853 105.618 13.1894 105.168 13.7105C104.718 14.2317 104.09 14.4923 103.285 14.4923C102.764 14.4923 102.408 14.3738 102.219 14.1369C102.053 13.8764 101.923 13.5092 101.828 13.0354C101.757 12.7274 101.686 12.5024 101.615 12.3603C101.544 12.2181 101.413 12.1471 101.224 12.1471C100.726 12.1471 100.3 12.2537 99.9445 12.4669C99.6129 12.6564 99.1747 12.9999 98.6298 13.4973L95.7871 27H90.6703L94.4369 9.23333ZM109.644 27.2132C108.294 27.2132 107.169 26.7513 106.269 25.8274C105.368 24.9035 104.918 23.4585 104.918 21.4923C104.918 19.7394 105.262 17.9035 105.949 15.9847C106.66 14.0422 107.702 12.4076 109.076 11.0811C110.473 9.7308 112.132 9.05567 114.05 9.05567C115.022 9.05567 115.744 9.22149 116.218 9.55313C116.692 9.88478 116.929 10.323 116.929 10.8679V11.1166L117.32 9.23333H122.436L119.878 21.3147C119.783 21.67 119.736 22.049 119.736 22.4517C119.736 23.4704 120.221 23.9797 121.193 23.9797C121.856 23.9797 122.424 23.6717 122.898 23.0558C123.396 22.4399 123.787 21.6345 124.071 20.6395H125.563C124.687 23.1979 123.597 24.9391 122.294 25.8629C121.015 26.7631 119.724 27.2132 118.421 27.2132C117.426 27.2132 116.621 26.9408 116.005 26.3959C115.413 25.8274 115.057 25.0101 114.939 23.9441C114.252 24.9154 113.482 25.709 112.629 26.3249C111.8 26.9171 110.805 27.2132 109.644 27.2132ZM111.954 23.7665C112.546 23.7665 113.127 23.494 113.695 22.9492C114.287 22.3807 114.69 21.6108 114.903 20.6395L116.609 12.609C116.609 12.301 116.49 12.0049 116.254 11.7207C116.017 11.4127 115.649 11.2587 115.152 11.2587C114.204 11.2587 113.352 11.8154 112.594 12.9288C111.836 14.0185 111.243 15.3451 110.817 16.9085C110.391 18.4483 110.177 19.8104 110.177 20.9949C110.177 22.1793 110.343 22.9374 110.675 23.269C111.03 23.6006 111.457 23.7665 111.954 23.7665ZM145.084 27.2132C143.829 27.2132 142.917 26.8342 142.348 26.0761C141.779 25.3181 141.495 24.3587 141.495 23.1979C141.495 22.7005 141.554 22.1438 141.673 21.5279C141.791 20.8883 141.91 20.2724 142.028 19.6801C142.17 19.0879 142.265 18.7089 142.312 18.5431C142.502 17.714 142.68 16.8967 142.845 16.0913C143.011 15.2858 143.094 14.6344 143.094 14.1369C143.094 12.9288 142.668 12.3247 141.815 12.3247C141.199 12.3247 140.654 12.6327 140.18 13.2486C139.707 13.8408 139.328 14.6226 139.043 15.5938L136.627 27H131.51L134.104 14.741C134.175 14.4567 134.211 14.1606 134.211 13.8527C134.211 12.8104 133.856 12.2892 133.145 12.2892C132.482 12.2892 131.901 12.5972 131.404 13.2131C130.93 13.8053 130.551 14.5989 130.267 15.5938L127.85 27H122.734L126.5 9.23333H131.617L131.226 11.0811C132.434 9.7308 133.879 9.05567 135.561 9.05567C137.646 9.05567 138.866 10.0743 139.221 12.1115C140.524 10.098 142.17 9.0912 144.16 9.0912C145.368 9.0912 146.328 9.42284 147.038 10.0861C147.749 10.7494 148.104 11.7562 148.104 13.1065C148.104 13.7934 148.022 14.5633 147.856 15.4161C147.69 16.2452 147.453 17.2639 147.145 18.472C146.956 19.2064 146.778 19.9289 146.612 20.6395C146.47 21.3265 146.399 21.8714 146.399 22.2741C146.399 22.7478 146.505 23.115 146.719 23.3756C146.932 23.6362 147.299 23.7665 147.82 23.7665C148.389 23.7665 148.78 23.6954 148.993 23.5533C148.851 24.7614 148.412 25.6734 147.678 26.2893C146.967 26.9052 146.103 27.2132 145.084 27.2132Z" fill="white"/>
</svg>
