<svg width="39" height="38" viewBox="0 0 39 38" fill="none" xmlns="http://www.w3.org/2000/svg">
<g id="u:image-search">
<path id="Vector" d="M28.1603 23.6236L30.1875 25.6508V22.7839V22.1664C30.1875 22.0615 30.2292 21.9608 30.3034 21.8866C30.3777 21.8123 30.4783 21.7706 30.5833 21.7706C30.6883 21.7706 30.789 21.8123 30.8632 21.8865C30.9375 21.9608 30.9792 22.0615 30.9792 22.1664V30.0831C30.9792 31.0279 30.6038 31.9341 29.9357 32.6022C29.2676 33.2703 28.3615 33.6456 27.4167 33.6456H8.41666C7.47182 33.6456 6.56569 33.2703 5.89759 32.6022C5.22949 31.9341 4.85416 31.0279 4.85416 30.0831V11.0831C4.85416 10.1383 5.22949 9.23214 5.89759 8.56405C6.56569 7.89595 7.47182 7.52061 8.41666 7.52061H14.75C14.855 7.52061 14.9557 7.56232 15.0299 7.63655C15.1041 7.71078 15.1458 7.81147 15.1458 7.91645C15.1458 8.02143 15.1041 8.12211 15.0299 8.19634C14.9557 8.27058 14.855 8.31228 14.75 8.31228H8.41666C7.68178 8.31228 6.97701 8.60421 6.45738 9.12384C5.93775 9.64347 5.64582 10.3482 5.64582 11.0831V19.9656V22.8462L7.67583 20.8025L10.0036 18.459C10.6243 17.8825 11.4403 17.5618 12.2879 17.5618C13.1358 17.5618 13.952 17.8827 14.5728 18.4595L18.4844 22.3869L19.3241 23.23L20.1655 22.3886L21.2705 21.2836C21.271 21.2831 21.2716 21.2826 21.2721 21.2821C21.8769 20.6828 22.6939 20.3466 23.5454 20.3466C24.3969 20.3466 25.2139 20.6828 25.8187 21.2821C25.8193 21.2826 25.8198 21.2831 25.8203 21.2836L28.1603 23.6236ZM5.99509 23.5895L5.64582 23.9375V24.4306V30.0831C5.64582 30.818 5.93775 31.5228 6.45738 32.0424C6.97702 32.562 7.68179 32.8539 8.41666 32.8539H24.9625H27.8294L25.8022 30.8268L19.0097 24.0343L13.9905 19.0151L13.9804 19.005L13.97 18.9951C13.5166 18.563 12.9143 18.322 12.2879 18.322C11.6615 18.322 11.0592 18.563 10.6058 18.9951L10.5962 19.0043L10.5868 19.0136L5.99509 23.5895ZM30.1868 30.1225L30.1875 30.1028V30.0831V27.2648V26.7753L29.8426 26.428L25.2724 21.8262C25.2713 21.8251 25.2703 21.8241 25.2692 21.823C25.0458 21.5958 24.7794 21.4152 24.4857 21.2918L24.4856 21.2918C24.1905 21.1677 23.8735 21.1039 23.5533 21.1039C23.2331 21.1039 22.9162 21.1677 22.621 21.2918L22.621 21.2918C22.3295 21.4143 22.0651 21.5929 21.8427 21.8176L20.7405 22.9041L19.8915 23.7409L20.7317 24.5867L27.8725 31.775L28.8738 32.783L29.6881 31.6187C29.9958 31.1788 30.169 30.659 30.1868 30.1225ZM34.032 17.1295L34.0409 17.1385L34.0501 17.1473C34.0884 17.1842 34.1188 17.2285 34.1397 17.2774L35.2325 16.8129L34.1397 17.2774C34.1605 17.3264 34.1712 17.3791 34.1712 17.4323C34.1712 17.4855 34.1605 17.5381 34.1397 17.5871C34.1188 17.6361 34.0884 17.6803 34.0501 17.7173L34.0404 17.7266L34.031 17.736C33.9942 17.7731 33.9504 17.8026 33.9022 17.8227C33.854 17.8428 33.8022 17.8531 33.75 17.8531C33.6977 17.8531 33.646 17.8428 33.5978 17.8227C33.5495 17.8026 33.5058 17.7731 33.469 17.736L33.4679 17.735L30.7446 14.9959L30.0884 14.3358L29.2907 14.8153C28.3858 15.3593 27.3472 15.6405 26.2914 15.6274L26.2914 15.6274L26.2847 15.6273C24.8135 15.6174 23.406 15.0262 22.369 13.9827L22.3665 13.9803C21.6181 13.2316 21.0957 12.2872 20.859 11.2554C20.6223 10.2236 20.681 9.14597 21.0284 8.14595C21.3757 7.14594 21.9976 6.26394 22.8229 5.60096C23.6482 4.93797 24.6435 4.5208 25.6949 4.3972C26.7463 4.2736 27.8112 4.44857 28.7678 4.90208C29.7243 5.35559 30.5338 6.06931 31.1036 6.96151C31.6734 7.85371 31.9804 8.88834 31.9895 9.94691C31.9986 11.0055 31.7094 12.0452 31.155 12.9471L30.6655 13.7433L31.3245 14.4062L34.032 17.1295ZM27.3541 14.8427C28.2979 14.6525 29.164 14.1864 29.8425 13.5033C30.747 12.5927 31.2547 11.3612 31.2547 10.0777C31.2547 8.79415 30.747 7.5627 29.8425 6.65207C29.164 5.96902 28.2979 5.50284 27.3541 5.31265C26.4103 5.12246 25.4313 5.21682 24.5412 5.58377C23.6511 5.95072 22.8901 6.57373 22.3545 7.37379C21.819 8.17385 21.5331 9.11493 21.5331 10.0777C21.5331 11.0405 21.819 11.9815 22.3545 12.7816C22.8901 13.5817 23.6511 14.2047 24.5412 14.5716C25.4313 14.9386 26.4103 15.0329 27.3541 14.8427Z" fill="black" stroke="#A0A0A0" stroke-width="2.375"/>
</g>
</svg>
