<svg width="16" height="17" viewBox="0 0 16 17" fill="none" xmlns="http://www.w3.org/2000/svg">
<path id="Shape" fill-rule="evenodd" clip-rule="evenodd" d="M0 16.5H16V0.5H0V16.5ZM4.97771 15.4333H1.0666V11.5222H4.97771V15.4333ZM9.95564 11.5222H6.04453V15.4333H9.95564V11.5222ZM11.0223 11.5222H14.9334V15.4333H11.0223V11.5222ZM4.97771 6.54443H1.0666V10.4555H4.97771V6.54443ZM6.04453 6.54443H9.95564V10.4555H6.04453V6.54443ZM14.9334 6.54443H11.0223V10.4555H14.9334V6.54443ZM14.9334 1.56667V5.47779H11.0223V1.56667H14.9334ZM4.97771 1.56667H1.0666V5.47779H4.97771V1.56667ZM6.04453 1.56667H9.95564V5.47779H6.04453V1.56667Z" fill="#F9F9F9"/>
</svg>
